<?xml version="1.0" encoding="utf-8"?>
<!-- Generator: Adobe Illustrator 19.0.0, SVG Export Plug-In . SVG Version: 6.00 Build 0)  -->
<svg version="1.1" id="Layer_1" xmlns="http://www.w3.org/2000/svg" xmlns:xlink="http://www.w3.org/1999/xlink" x="0px" y="0px"
	 viewBox="0 0 744 234" style="enable-background:new 0 0 744 234;" xml:space="preserve">
<style type="text/css">
	.st0{fill:none;}
	.st1{fill:#231F20;}
	.st2{fill:#010101;}
	.st3{fill:#E2E2E2;}
</style>
<path class="st0" d="M87.1,43.1c0.3-0.5,0.9-0.9-0.3-2c-0.8,1-1.7,2-2.6,2.9c-8.6,9.4-16.6,19.3-24.4,29.4
	c-9.5,12.3-19.1,24.6-27,38.1c0.3,0.3,0.6,0.6,0.9,1C51.9,89.7,70.3,67,87.1,43.1z"/>
<path class="st0" d="M95.2,208.7c-1.6,2.1-2.9,4.4-4,6.7c-0.9,2-0.5,4,0.8,5.2c1.5,1.4,2.8-0.6,4-1.4c1.2-0.8,2.3-1.9,3.4-3
	c10.7-11.3,18.6-24.5,27.1-38.6c-1.4,0.5-1.7,0.5-2,0.7C113.9,187.7,103.6,197.3,95.2,208.7z"/>
<path class="st0" d="M124.5,139.3c6.5-2.7,11.9-6.6,17.6-10.9C134.2,128.1,126.3,133,124.5,139.3z"/>
<g>
	<path class="st1" d="M368.9,62.8c-0.6-1.7-2.1-2.1-3.7-1.8c-7.6,1.7-15.3,2.3-23,3.1c-9.9,1.1-19.9,2.2-30.3,3.3
		c1-1.7,1.6-2.9,2.4-4c4.7-7.1,9.3-14.1,14.1-21.2c1.2-1.8,2.2-3.7,1.3-5.9c-0.8-2-2.3-3.1-4.5-3.4c-2.4-0.3-4,0.8-5.3,2.7
		c-6.6,10-13.1,20-19.2,30.4c-1.2,2-2.4,3.1-4.8,3.2c-5.6,0.4-11.2,1.1-16.7,1.8c-4,0.5-5.2,2.3-4.5,6.3c0.6,3.7,2.3,4.8,6.4,4.2
		c3.5-0.5,7-1.4,10.6-1.3c0.3,1.7-0.7,2.6-1.3,3.6c-4.3,8-8.3,16.2-12.3,24.3c-2.3,4.7-2.2,10.9-7,13.9c-4.5,2.7-9.8,4.3-14.7,6.3
		c-4.5,1.8-9.2,3.2-14.1,3.5c-2.8,0.2-3.9-1-3.3-3.9c0.8-3.4,2.1-6.6,3.5-9.8c1.8-4.1,2.8-8.2-0.3-12c-3-3.7-7.4-2.9-11.5-2.5
		c-0.5,0.1-0.9,0.3-1.4,0.4c-8.2,2.2-15.3,6.5-22.3,11.1c-1,0.7-1.8,2.1-3.4,1.5c-0.2-1.3,0.6-2.1,1.1-2.9
		c16.6-30.1,33.3-60.1,50.7-89.9c2.8-4.8,5.8-9.6,8.2-14.7c2.5-5.1,0.6-8.1-4.6-8.7c-3.2,1.3-5,4-6.6,6.9
		c-21.6,37.7-42.8,75.7-63.2,114.1c-0.7,1.3-1.3,2.5-2.8,3.3c-9.1,4.4-17.4,10.2-25.8,15.8c-1,0.7-1.9,2.1-3.8,1.6
		c2.9-5.9,5.8-11.6,8.6-17.4c1.3-2.7,2.6-5.4,3.5-8.2c0.7-2.4,0.4-4.9-2.4-6c-2.4-0.9-4.7-1-6.5,1.7c-1.4,2-3.4,3.6-5.1,5.5
		c-0.8,0.9-1.6,1.2-2.9,0.8c-9.9-3-19.2-1.1-27.4,4.6c-5.7,3.9-11.6,7.3-17.6,10.6c-8.8,4.9-17.8,9.4-27.7,12.1
		c-1.1,0.3-2.4,0.9-3.2,0.1c-0.8-0.8,0-2.1,0.4-3.1c0.4-0.9,0.8-1.8,1.2-2.7c3.1-6.4,7.4-12.1,11.5-17.9c2.2-3.1,1.7-5.8-1.4-7.8
		c-3-2-5.5-1.5-7.6,1.5c-0.7,1-1.3,2.1-2,3.1c-6.3,9.3-10.6,20.1-20.9,26.2c-3.7,2.2-6.9,5.4-10.4,7.9c-7.7,5.5-15.5,10.9-24.3,14.5
		c-3.1,1.3-6.6,1.9-9.2-0.5c-2.6-2.3-1.8-5.7-1.4-8.8c0.2-1.5,0.9-2.4,2-3.4c1.8-1.5,3.5-3.2,5-5.1c16.1-20.6,32.1-41.1,48.1-61.8
		c13.9-18,28-35.8,39.4-55.5c1.3-2.3,2.5-4.6,3-7.2c1.3-6.2-3.3-10.2-9.3-8.3c-5,1.6-8.4,5.3-11.9,8.8C68.9,45,52.8,66.2,37.3,88
		c-12.7,17.9-24.2,36.6-32.5,57c-1.6,3.9-1.9,8.1-4,11.8c0,0.3,0,0.5,0,0.8c1.2,2.3,1.2,4.5,0,6.8c0,0.3,0,0.5,0,0.8
		c0.8,0.1,0.7,0.9,0.9,1.4c2.1,8.3,7.7,12.5,16.3,12.2c5.4-0.2,10.1-2.4,14.7-5c11-6.5,21-14.3,30.4-23.1c0.8-0.7,1.4-1.8,2.7-1.8
		c2.3,5.6,6.1,7.9,12,7c4.4-0.6,8.4-2.1,12.5-3.9c8-3.5,15.6-7.6,23-12.4c0.6,9.1,4.4,12.4,12,10.3c1.8-0.5,3.5-1.3,5.2-2.1
		c5.5-2.7,10.6-6.1,15.5-9.7c0.6-0.5,1.1-1.5,2.5-0.5c-2.7,5.1-5.4,10.2-8,15.4c-1.6,3.2-3.8,5.7-6.6,7.9
		c-12,9.6-23.7,19.6-34.3,30.7c-5.8,6.1-11.5,12.2-15.2,19.8c-2.7,5.4-1.2,13.1,2.9,16.2c3.7,2.9,8.4,2.2,14.1-1.9
		c3.2-2.4,5.9-5.4,8.5-8.4c14.1-16.8,24.9-35.8,35.8-54.7c1.1-2,2.4-3.7,4.2-5.1c9.2-7.3,18.7-14.2,28.6-20.5
		c0.9-0.6,1.9-1.1,3.6-2.1c-3.2,6-5.9,11.1-8.7,16.3c-1.4,2.7-0.7,4.9,1.8,6.4c2.6,1.6,4.8,0.7,6.5-1.6c0.3-0.4,0.5-0.9,0.8-1.3
		c9.8-16.5,23.4-29.1,40.1-38.4c4-2.2,8.2-4.2,13-4.4c-0.1,2.2-1.1,3.8-1.8,5.5c-1.5,4-3,7.9-2.9,12.3c0.2,5.9,3.6,9.5,9.5,9.9
		c2.4,0.1,4.7-0.1,7.1-0.5c7.9-1.7,15.2-5.2,22.8-8.6c-0.2,2.3-0.6,4.3-0.6,6.2c0,7.8,5.2,11.3,12.5,8.4c2.8-1.1,5.3-2.8,7.7-4.6
		c8.9-6.7,16.7-14.7,24.1-22.9c1.5-1.6,2.9-2.4,5.2-2c3.6,0.7,7.2,0.5,10.8,0.4c2.8-0.1,5.6-0.4,9,0.4c-7.2,5.9-14.6,10-22.7,13.1
		c-1.2-4.3-2.8-5.6-5.4-4.4c-2.9,1.4-5.6,6.5-4.6,9.1c1.4,3.7,4.6,3.9,7.8,3.2c12.1-2.4,22.8-7.8,32.1-15.8c1-0.9,1.8-2.1,2.5-3.2
		c2.5-4.4,0.7-8.9-4.1-10.4c-3.4-1-6.8-1.6-10.3-1.5c-3.8,0.1-7.6,0-11.4,0c7.4-7.2,16.1-11.2,25.5-13.7c2.1-0.6,3.9-0.9,5.7,1.1
		c1.6,1.7,3.7,1.6,5.7,0c2.8-2.3,4.1-5,3.2-8.5c-0.9-3.1-4.7-5.3-8.9-4.7c-16.4,2.1-30.4,9.1-42,21c-2.4,2.5-3.6,5.5-2.2,8.9
		c0.5,1.2,0,1.8-0.7,2.5c-8.1,7.8-16,15.8-25.4,22c-1.6,1.1-3.2,2.3-5.4,2.3c-0.4-2.7,0.3-5.1,1.1-7.4c6-18,15.6-34.2,25-50.5
		c0.8-1.3,1.9-1.4,3.1-1.6c17.6-2.8,35.3-5,52.8-8.8c2.4-0.5,4.9-0.9,7.1-2.1C369,66,369.6,64.5,368.9,62.8z M32.9,111.6
		c7.9-13.5,17.5-25.8,27-38.1c7.8-10.1,15.8-20,24.4-29.4c0.9-1,1.7-2,2.6-2.9c1.2,1,0.6,1.5,0.3,2C70.3,67,51.9,89.7,33.8,112.6
		c-0.6,1.2-1.4,2.3-3.1,3.3C30.9,113.8,31.8,112.6,32.9,111.6z M124.5,139.3c1.9-6.3,9.7-11.2,17.6-10.9
		C136.3,132.7,131,136.7,124.5,139.3z M99.4,216.3c-1,1.1-2.1,2.2-3.4,3c-1.2,0.8-2.5,2.8-4,1.4c-1.3-1.2-1.7-3.3-0.8-5.2
		c1.1-2.4,2.4-4.6,4-6.7c8.5-11.4,18.8-21,29.3-30.3c0.2-0.2,0.6-0.2,2-0.7C117.9,191.7,110.1,205,99.4,216.3z"/>
</g>
<path class="st2" d="M93,96.2c-2,2-3.8,4.3-4.9,7c-1.8,4,0.7,7.9,5.3,8c0.4-0.1,1.6-0.2,2.3-0.7c2.8-2.6,5.2-5.6,6.4-9.3
	c0.8-2.4-0.5-4.4-2.6-5.7C97.2,94.1,94.9,94.4,93,96.2z"/>
<g>
	<path d="M730.6,109.5c-3.8,1.6-7.3,3.7-10.7,6.1c-3.1,2.2-6.1,4.5-9.2,6.7c-0.2-0.3-0.3-0.4-0.3-0.5c0-0.2,0-0.5,0.1-0.7
		c1.7-3.1,1.1-5.2-2.5-6.1c-6.8-1.6-7.4-0.9-8.4,3.2c-1.3,5.4-3.5,10.6-5.7,15.8c-0.5,1.1-0.8,2.1-2,2.5
		c-12.9,5.2-25.6,11.2-39.3,14.2c-3.6,0.8-7.3,1.7-11.1,0.2c-2.4-0.9-2.5-2.7-2.2-4.9c0.3-2.1,1.2-2.4,3.1-1.9
		c1.1,0.2,2.5-0.2,3.6-0.6c9.2-3,17-8.2,23.6-15.3c2.4-2.6,4.8-5.1,5.9-8.6c1.4-4.5-0.9-7.7-5.6-7.8c-2.1,0-4,0.5-5.8,1.3
		c-10.8,4.3-19.8,11.1-26.5,20.6c-2.9,4.1-4.6,8.8-4.8,13.9c-0.1,1.7,2,3.9,0,5c-1.5,0.8-3.6,0.4-5.5,0.5c-0.6,0-1.3,0-1.9,0
		c-3.3-0.1-6.8-0.5-8.4-3.8c-1.7-3.6-0.6-7.1,1.6-10.2c2-2.8,4.1-5.7,6.3-8.4c1.5-1.9,2.1-3.9,0.2-5.7c-2-2-4.2-1.2-6,0.4
		c-2.4,2.2-4.2,4.9-6.1,7.5c-6.8,9.1-14.7,17-24.6,22.7c-1.8,1-4.2,2.7-5.9,1.4c-1.8-1.4-0.3-4,0.3-6c0.7-2.1,1.7-4.1,2.7-6.1
		c2.8-5.4,6.5-10.1,10.4-14.6c2-2.3,2-4.6-0.2-6.5c-2.2-1.8-4.6-1.8-6.7,0.4c-0.9,1-1.8,2.1-2.7,3.1c-4.3,5.1-7.1,11.2-11,16.5
		c-6.6,8.9-13.9,17.4-20.9,26c-0.5,0.6-0.9,1.7-2.2,0.6c2.4-4.5,4.8-8.9,7.3-13.4c4.4-8.2,8.9-16.5,13.3-24.6c1.8-3.2,0-5.2-2.4-6.9
		c-2.4-1.7-4.3-1.2-5.9,1.3c-1.5,2.2-3.3,4.2-5.1,6.4c-6.7-9.6-14.6-10.3-23-2.4c-3.8,3.5-7.2,7.4-9.4,12c-2.4,5-6.1,8.7-10.2,12.1
		c-1.4,1.2-2.8,2.5-4.3,3.6c-7.5,6.1-14.7,12.4-23.8,16.1c-5.2,2.1-7.9-0.2-6.6-5.7c2.6-10.3,9.3-17.6,18.6-24.2
		c-0.7,2.3-1.1,3.5-1.4,4.8c-0.7,2.7,1.8,6.4,4.9,6.9c3.3,0.5,3.4-2.3,3.8-4.4c0.4-1.7,0.5-3.5,0.4-5.2c-0.2-7.8-6.6-11.9-13.9-8.9
		c-9.8,4.1-22.2,21.1-20.9,30.3c0.1,1,0.2,2.1-1,2.5c-8,3.1-15.8,6.9-24.6,7.2c-3.5,0.2-4.3-1.1-3.1-4.4c2.1-5.7,5.6-10.5,9.8-14.9
		c3.1-3.2,6-6.7,9-10.1c1.7-2,2.7-4.2,0.4-6.3c-2.2-2.1-4.3-0.9-6.1,1.1c-1.4,1.5-2.9,3-4.4,4.6c-0.9-3.3-3.1-4.3-6.2-4.3
		c-9.7-0.2-18.8,2-27.7,5.6c-8.6,3.5-15.2,9.2-21.6,16c-10.2,10.7-22.2,19.7-35.4,26.8c-2,1-4,2.1-6.2,2.6c-2.9,0.5-6.1,1-8.1-2.2
		c-1.4-2.2-1.3-9,0.4-10.4c6.1-5.3,10.2-12.3,14.9-18.7c20.7-27.9,41.6-55.5,61-84.3c4.3-6.4,8.3-13,11.6-20
		c2.2-4.6,1.8-8.5-0.7-10.3c-2.8-2.1-6.7-1.5-10.5,1.7c-2.5,2.1-4.9,4.2-7.1,6.7c-27.5,30.7-51.6,63.8-69.9,100.9
		c-4.3,8.7-8.1,17.7-9.1,27.5c-1,10.7,4,17.3,13.7,18c3.5,0.2,6.9-0.5,10.1-2.1c5.8-2.7,10.9-6.5,16.1-10.2
		c6.1-4.4,11.5-9.6,17.3-14.8c0.6,1.7,1,3,1.4,4.3c2.8,7.2,8.5,10.2,16.1,8.5c3.7-0.9,7.1-2.3,10.3-4.2c4.7-2.7,9-6.1,13.4-9.6
		c1.1,6.2,3.2,8.5,8.2,9c2.3,0.2,4.7,0.2,7.1-0.3c7.4-1.5,14.3-4.4,21.1-7.4c1.3-0.6,2.3-1.2,3.5,0.4c4.4,5.7,10.1,5.8,16.2,3.4
		c7.7-3,14-8,20.3-13.2c2.7-2.3,5.4-4.7,8.1-7.1c1.3,3.5,3.3,6,6.7,7.1c6.8,2.2,11.6-2.4,17.4-5.9c-0.6,1.3-0.9,2-1.3,2.6
		c-10.6,19.5-21.1,39-31.7,58.5c-3.3,6.1-3.2,6.5,1.9,10.8c0.8,0,1.5,0,2.3,0c1.2-0.8,2.2-1.8,3.1-3c10.7-14.5,21.4-28.9,32-43.4
		c6.8-9.2,13.6-18.4,20.5-27.8c3.1,5.9,6.7,7.8,12.9,6.5c3.6-0.7,6.8-2.5,9.8-4.5c5-3.2,9.2-7.3,13.6-11.4c2.1,6.4,7,8.9,13,9.7
		c2.6,0.3,5.2,0.3,7.8-0.2c3.7-0.7,7.4-2.2,11-1.9c9.8,0.8,18.7-2.4,27.6-5.6c6.9-2.5,13.7-5.5,20.9-8.4c-0.6,1.4-0.9,2.5-1.3,3.5
		c-1.2,2.5-1.4,4.9,1.5,6.4c2.9,1.4,4.7,0,6.1-2.5c5.2-9.5,13.1-16.6,21.3-23.4c5.1-4.3,10.5-8.2,17.4-11.3c-0.8,2-1.4,3.2-1.9,4.4
		c-0.8,2.1-0.7,4,1.6,5.1c2.3,1,4.2,0.3,5.3-2c1.2-2.6,2.4-5.3,3.6-8c0-0.8,0-1.5,0-2.3C739.8,107.7,737.1,106.8,730.6,109.5z
		 M665.7,120.7c-4.6,5.1-9.6,8.2-15.1,10.9C651.3,128.4,658.1,123.5,665.7,120.7z M366.2,142.4c15.2-25.1,32.6-48.6,51.4-71.1
		c0.2-0.3,0.6-0.5,0.8-0.7c0.7-1.4,1.8-2.5,3.6-3.9c-0.3,2.5-1.5,3.8-2.6,5c0,0,0,0,0,0c-6.9,11-14.7,21.3-22.4,31.7
		c-9.3,12.6-18.7,25.2-28.1,37.8c-0.9,1.3-2,2.5-3,3.8C364.8,143.6,365.8,143,366.2,142.4z M419.5,178.4c-1.8,1-3.8,1.8-5.8,2.4
		c-5.8,1.8-9.6-1.7-8.4-7.7c0.4-2.1,1.3-4.1,2.9-5.6c11.5-11.3,25.8-14.4,42.3-14.9C440.5,162.9,431,171.8,419.5,178.4z
		 M530.2,160.1c3.6-10.7,8.4-19.2,17.1-25.2c1.3-0.9,3-1.9,4.3-0.2c1.3,1.8,3.2,4.4,1.4,6.4C546.5,148.2,540.1,155.4,530.2,160.1z"
		/>
	<path class="st3" d="M418.4,70.5c0.3,0.4,0.7,0.7,1,1.1C419.7,70.7,419.3,70.4,418.4,70.5z"/>
</g>
</svg>
